<svg width="24" height="24" viewBox="0 0 24 24" fill="none" xmlns="http://www.w3.org/2000/svg">
<path d="M19.4902 9.11765H10.8431C9.78189 9.11765 8.92157 9.97796 8.92157 11.0392V19.6863C8.92157 20.7475 9.78189 21.6078 10.8431 21.6078H19.4902C20.5515 21.6078 21.4118 20.7475 21.4118 19.6863V11.0392C21.4118 9.97796 20.5515 9.11765 19.4902 9.11765Z" stroke="black" stroke-width="1.92157" stroke-linecap="round" stroke-linejoin="round"/>
<path d="M5.07843 14.8823H4.11764C3.60801 14.8823 3.11925 14.6799 2.75889 14.3195C2.39853 13.9592 2.19608 13.4704 2.19608 12.9608V4.31372C2.19608 3.80409 2.39853 3.31533 2.75889 2.95497C3.11925 2.5946 3.60801 2.39215 4.11764 2.39215H12.7647C13.2743 2.39215 13.7631 2.5946 14.1235 2.95497C14.4838 3.31533 14.6863 3.80409 14.6863 4.31372V5.2745" stroke="black" stroke-width="1.92157" stroke-linecap="round" stroke-linejoin="round"/>
</svg>
