<svg width="32" height="34" viewBox="0 0 32 34" fill="none" xmlns="http://www.w3.org/2000/svg">
<path d="M13 24.0268C8 25.5268 8 21.5268 6 21.0268M20 27.0268V23.1568C20.0375 22.68 19.9731 22.2006 19.811 21.7506C19.6489 21.3006 19.3929 20.8902 19.06 20.5468C22.2 20.1968 25.5 19.0068 25.5 13.5468C25.4997 12.1506 24.9627 10.808 24 9.79679C24.4559 8.5753 24.4236 7.22514 23.91 6.02679C23.91 6.02679 22.73 5.67679 20 7.50679C17.708 6.88561 15.292 6.88561 13 7.50679C10.27 5.67679 9.09 6.02679 9.09 6.02679C8.57638 7.22514 8.54414 8.5753 9 9.79679C8.03013 10.8155 7.49252 12.1703 7.5 13.5768C7.5 18.9968 10.8 20.1868 13.94 20.5768C13.611 20.9168 13.3573 21.3222 13.1953 21.7667C13.0334 22.2112 12.9668 22.6849 13 23.1568V27.0268" stroke="black" stroke-width="2" stroke-linecap="round" stroke-linejoin="round"/>
</svg>
