<svg width="32" height="32" viewBox="0 0 32 32" fill="none" xmlns="http://www.w3.org/2000/svg">
<path d="M21 6H11C8.23858 6 6 8.23858 6 11V21C6 23.7614 8.23858 26 11 26H21C23.7614 26 26 23.7614 26 21V11C26 8.23858 23.7614 6 21 6Z" stroke="black" stroke-width="2" stroke-linecap="round" stroke-linejoin="round"/>
<path d="M20 15.37C20.1234 16.2022 19.9813 17.0522 19.5938 17.799C19.2063 18.5458 18.5932 19.1514 17.8416 19.5297C17.0901 19.9079 16.2385 20.0396 15.4078 19.9059C14.5771 19.7723 13.8098 19.3801 13.2149 18.7852C12.6199 18.1902 12.2277 17.4229 12.0941 16.5922C11.9604 15.7615 12.0921 14.9099 12.4703 14.1584C12.8486 13.4069 13.4542 12.7937 14.201 12.4062C14.9478 12.0187 15.7978 11.8766 16.63 12C17.4789 12.1259 18.2649 12.5215 18.8717 13.1283C19.4785 13.7351 19.8741 14.5211 20 15.37Z" stroke="black" stroke-width="2" stroke-linecap="round" stroke-linejoin="round"/>
<path d="M21.5 10.5H21.51" stroke="black" stroke-width="2" stroke-linecap="round" stroke-linejoin="round"/>
</svg>
