<svg width="24" height="24" viewBox="0 0 24 24" fill="none" xmlns="http://www.w3.org/2000/svg">
<g clip-path="url(#clip0_6_56)">
<path d="M25 2.01006C24.0424 2.68553 22.9821 3.20217 21.86 3.54006C21.2577 2.84757 20.4573 2.35675 19.567 2.13398C18.6767 1.91122 17.7395 1.96725 16.8821 2.29451C16.0247 2.62177 15.2884 3.20446 14.773 3.96377C14.2575 4.72309 13.9877 5.62239 14 6.54006V7.54006C12.2426 7.58562 10.5013 7.19587 8.93101 6.4055C7.36074 5.61513 6.01032 4.44869 5 3.01006C5 3.01006 1 12.0101 10 16.0101C7.94053 17.408 5.48716 18.109 3 18.0101C12 23.0101 23 18.0101 23 6.51006C22.9991 6.23151 22.9723 5.95365 22.92 5.68006C23.9406 4.67355 24.6608 3.40277 25 2.01006Z" stroke="black" stroke-width="2" stroke-linecap="round" stroke-linejoin="round"/>
</g>
<defs>
<clipPath id="clip0_6_56">
<rect width="24" height="24" fill="white"/>
</clipPath>
</defs>
</svg>
