<svg width="34" height="30" viewBox="0 0 34 30" fill="none" xmlns="http://www.w3.org/2000/svg">
<path d="M28 6.01006C27.0424 6.68553 25.9821 7.20217 24.86 7.54006C24.2577 6.84757 23.4573 6.35675 22.567 6.13398C21.6767 5.91122 20.7395 5.96725 19.8821 6.29451C19.0247 6.62177 18.2884 7.20446 17.773 7.96377C17.2575 8.72309 16.9877 9.62239 17 10.5401V11.5401C15.2426 11.5856 13.5013 11.1959 11.931 10.4055C10.3607 9.61513 9.01032 8.44869 8 7.01006C8 7.01006 4 16.0101 13 20.0101C10.9405 21.408 8.48716 22.109 6 22.0101C15 27.0101 26 22.0101 26 10.5101C25.9991 10.2315 25.9723 9.95365 25.92 9.68006C26.9406 8.67355 27.6608 7.40277 28 6.01006Z" stroke="black" stroke-width="2" stroke-linecap="round" stroke-linejoin="round"/>
</svg>
