<svg width="83" height="14" viewBox="0 0 83 14" fill="none" xmlns="http://www.w3.org/2000/svg">
<path d="M3.456 13L0.016 1.832H2.064L4.032 8.2L4.544 10.792L5.04 8.2L6.976 1.832L8.992 1.816L10.912 8.2L11.424 10.504L11.856 8.2L13.824 1.832H15.792L12.336 13H10.384L8.448 6.456L7.968 4.168L7.504 6.456L5.472 13H3.456ZM20.4009 13.192C17.6329 13.192 15.9529 11.448 15.9529 8.584C15.9529 5.72 17.6329 3.976 20.4009 3.976C23.1689 3.976 24.8489 5.72 24.8489 8.584C24.8489 11.448 23.1689 13.192 20.4009 13.192ZM17.8569 8.584C17.8569 10.472 18.8329 11.624 20.4009 11.624C21.9689 11.624 22.9289 10.472 22.9289 8.584C22.9289 6.696 21.9689 5.544 20.4009 5.544C18.8329 5.544 17.8569 6.696 17.8569 8.584ZM31.82 7.08C31.82 6.184 31.42 5.592 30.636 5.592C29.868 5.592 29.18 6.264 28.556 7.544V13H26.652V4.168H28.476L28.524 5.448C29.18 4.504 29.996 3.976 31.004 3.976C32.636 3.976 33.74 5.08 33.74 7.08V8.184H31.82V7.08ZM38.8896 3.976C40.0576 3.976 41.0336 4.472 41.6576 5.24V1.208H43.5616V13H41.7376L41.6896 11.88C41.0816 12.68 40.0736 13.192 38.8896 13.192C36.5536 13.192 34.9216 11.24 34.9216 8.584C34.9216 5.928 36.5536 3.976 38.8896 3.976ZM36.8256 8.584C36.8256 10.344 37.8496 11.608 39.3376 11.608C40.4096 11.608 41.2736 10.936 41.6576 9.88V7.288C41.2736 6.232 40.4096 5.56 39.3376 5.56C37.8496 5.56 36.8256 6.824 36.8256 8.584ZM48.1904 13L44.7504 1.832H46.7984L48.7664 8.2L49.2784 10.792L49.7744 8.2L51.7104 1.832L53.7264 1.816L55.6464 8.2L56.1584 10.504L56.5904 8.2L58.5584 1.832H60.5264L57.0704 13H55.1184L53.1824 6.456L52.7024 4.168L52.2384 6.456L50.2064 13H48.1904ZM61.6989 13V4.168H63.6029V13H61.6989ZM61.5869 2.776V0.823999H63.6829V2.776H61.5869ZM69.0075 13.192C66.7035 13.192 65.2795 11.928 65.2475 9.848H67.0235C67.0075 11.032 67.7755 11.768 69.0075 11.768C69.9835 11.768 70.5915 11.336 70.5915 10.632C70.5915 8.68 65.4235 9.992 65.4235 6.6C65.4235 4.952 66.7995 3.976 68.8635 3.976C70.9755 3.976 72.2235 5.064 72.3515 6.904H70.5755C70.5275 5.944 69.8715 5.4 68.8155 5.4C67.8875 5.4 67.3275 5.816 67.3275 6.504C67.3275 8.36 72.4955 6.872 72.4955 10.456C72.4955 12.152 71.1835 13.192 69.0075 13.192ZM78.1673 13.192C75.3832 13.192 73.6873 11.448 73.6873 8.568C73.6873 5.72 75.4153 3.976 78.2473 3.976C81.0953 3.976 82.5993 5.736 82.4073 8.584H75.5913V8.648C75.5913 10.392 76.5033 11.624 78.1673 11.624C79.4313 11.624 80.3273 10.984 80.5193 9.976H82.4392C82.1673 11.976 80.5513 13.192 78.1673 13.192ZM75.7993 7.208H80.4553C80.3753 6.184 79.4793 5.512 78.2473 5.512C76.9833 5.512 76.1513 6.104 75.7993 7.208Z" fill="#030712"/>
</svg>
